<?xml version="1.0" encoding="utf-8"?>
<!-- Generator: Adobe Illustrator 16.0.0, SVG Export Plug-In . SVG Version: 6.00 Build 0)  -->
<!DOCTYPE svg PUBLIC "-//W3C//DTD SVG 1.1//EN" "http://www.w3.org/Graphics/SVG/1.1/DTD/svg11.dtd">
<svg version="1.1" id="Layer_1" xmlns="http://www.w3.org/2000/svg" xmlns:xlink="http://www.w3.org/1999/xlink" x="0px" y="0px"
	 width="1500px" height="1500px" viewBox="0 0 1500 1500" enable-background="new 0 0 1500 1500" xml:space="preserve">
<path style="fill: white" fill-rule="evenodd" clip-rule="evenodd" d="M1391.191,711.821c-0.499,1.228-1.067,2.437-1.509,3.697
	c-11.37,33.069-22.722,66.151-34.08,99.227c-0.605,1.781-1.25,3.542-1.938,5.285c-1.907,4.716-5.24,7.001-10.285,6.944
	c-4.937-0.063-9.053-1.742-10.82-6.705c-4.249-11.913-8.403-23.858-12.481-35.821c-8.019-23.474-15.979-46.959-23.96-70.426
	c-0.233-0.694-0.631-1.326-1.471-1.888c0,1.029,0,2.068,0,3.097c0,44.241,0,88.485,0,132.729c0,1.377,0.019,2.771-0.076,4.161
	c-0.359,5.069-3.144,8.497-8.138,9.078c-3.901,0.448-7.942,0.448-11.844-0.019c-4.994-0.6-7.602-3.82-7.968-8.852
	c-0.113-1.376-0.088-2.771-0.088-4.16c0-65.515,0-131.034,0-196.554c0-0.6,0-1.19,0-1.781c0.051-8.22,3.333-11.487,11.56-11.525
	c1.982-0.019,3.959-0.009,5.941-0.009c8.517,0.019,12.021,2.446,14.785,10.449c6.516,18.962,13.012,37.937,19.509,56.909
	c7.771,22.614,15.543,45.226,23.296,67.837c0.246,0.713,0.606,1.401,1.257,2.897c0.688-1.768,1.143-2.866,1.547-3.989
	c14.306-41.056,28.624-82.1,42.956-123.14c0.379-1.114,0.814-2.219,1.256-3.324c1.862-4.887,5.563-7.336,10.663-7.554
	c4.06-0.17,8.119-0.18,12.173,0c5.146,0.218,8.156,3.008,9.016,8.135c0.246,1.446,0.283,2.942,0.283,4.429
	c0.02,65.921,0.02,131.833,0,197.756c0,1.565-0.075,3.169-0.347,4.71c-0.814,4.899-3.617,7.614-8.529,7.942
	c-3.655,0.252-7.336,0.271-10.992,0.025c-5.6-0.386-8.725-3.763-9.065-9.42c-0.076-1.49-0.076-2.974-0.102-4.457
	c0-44.144,0-88.286,0-132.429c0-1.045,0-2.083,0-3.122C1391.57,711.906,1391.381,711.868,1391.191,711.821z"/>
<path style="fill: white" fill-rule="evenodd" clip-rule="evenodd" d="M928.75,789.561c0-1.111,0-2.247,0-3.371c0-44.737,0-89.486,0-134.232
	c0-1.288-0.044-2.573,0.057-3.857c0.493-6.392,3.921-9.65,10.342-9.782c2.784-0.047,5.562-0.095,8.327,0.057
	c5.082,0.284,8.227,3.286,8.819,8.305c0.189,1.667,0.266,3.353,0.284,5.038c0,65.429,0,130.86,0,196.292
	c0,10.771-2.721,13.498-13.522,13.485c-2.879-0.025-5.777,0.038-8.593-0.315c-3.983-0.505-7.109-2.582-8.593-6.421
	c-3.296-8.561-6.496-17.179-9.659-25.815c-10.266-28.221-20.5-56.46-30.746-84.69c-4.438-12.163-8.839-24.329-13.258-36.491
	c-0.284-0.799-0.701-1.569-1.698-2.333c-0.051,1.19-0.165,2.371-0.165,3.561c0,46.119,0,92.251,0,138.377
	c0,11.604-2.537,14.135-14.142,14.135c-10.985-0.006-13.637-2.664-13.637-13.655c0-65.331,0-130.662,0-195.992
	c0-1.392-0.019-2.784,0.057-4.154c0.322-5.306,3.106-8.753,8.327-9.173c4.894-0.41,9.887-0.265,14.817,0.057
	c4.515,0.296,7.772,2.917,9.395,7.134c3.504,9.126,6.875,18.309,10.247,27.488c13.832,37.871,27.658,75.742,41.473,113.615
	c0.359,0.973,0.764,1.913,1.143,2.866C928.271,789.649,928.504,789.611,928.75,789.561z"/>
<path style="fill: white" fill-rule="evenodd" clip-rule="evenodd" d="M1056.217,749.749c0-21.775-0.038-43.537,0.02-65.321
	c0.019-8.144,0.82-16.203,4.173-23.773c5.271-11.945,14.799-18.975,27.084-22.015c17.299-4.287,34.73-4.552,51.813,1.086
	c16.402,5.411,25.279,17.261,27.337,34.272c0.48,4.009,0.65,8.084,0.65,12.125c0.038,43.158,0.02,86.303,0.02,129.461
	c0.019,7.98-0.84,15.79-4.041,23.195c-5.29,12.197-15.007,19.319-27.488,22.4c-17.103,4.204-34.345,4.406-51.265-1.073
	c-16.951-5.506-25.771-17.804-27.734-35.254c-0.436-3.927-0.53-7.904-0.549-11.856
	C1056.179,791.915,1056.217,770.835,1056.217,749.749z M1137.369,749.91c0-9.694,0.057-19.401,0-29.099
	c-0.095-12.667-0.12-25.326-0.48-37.984c-0.283-9.552-5.385-16.516-13.788-19.069c-7.449-2.276-15.107-2.162-22.558-0.028
	c-5.6,1.591-9.905,5.095-11.768,10.764c-1.162,3.514-2.235,7.286-2.235,10.944c-0.171,42.842-0.133,85.694-0.051,128.537
	c0,2.936,0.55,5.922,1.326,8.763c1.604,5.94,5.069,10.474,11.017,12.646c7.273,2.658,14.685,2.715,22.191,1.137
	c8.511-1.793,13.542-7.084,15.127-15.468c0.796-4.142,1.143-8.441,1.162-12.658C1137.444,788.892,1137.369,769.396,1137.369,749.91z
	"/>
<path style="fill: white" fill-rule="evenodd" clip-rule="evenodd" d="M279.553,749.616c0-21.472-0.038-42.95,0-64.428
	c0.019-8.848,0.84-17.573,4.76-25.727c5.392-11.238,14.634-17.829,26.365-20.771c17.488-4.381,35.127-4.631,52.388,1.171
	c16.118,5.42,24.843,17.22,26.901,33.963c0.511,4.211,0.663,8.488,0.663,12.728c0.038,43.061,0.019,86.114,0.038,129.165
	c0,9.817-1.351,19.325-6.591,27.911c-5.751,9.407-14.419,14.95-24.799,17.514c-17.109,4.205-34.345,4.457-51.246-0.985
	c-17.242-5.53-26.194-18.005-27.905-35.746c-0.631-6.478-0.537-13.037-0.556-19.559
	C279.497,786.436,279.553,768.025,279.553,749.616z M360.705,749.805c0-5.145,0.038-10.288,0-15.43
	c-0.132-17.116-0.113-34.231-0.479-51.34c-0.202-9.723-5.404-16.791-13.883-19.315c-7.355-2.201-14.893-2.106-22.267-0.057
	c-5.606,1.563-9.988,4.981-11.888,10.638c-1.2,3.517-2.286,7.276-2.304,10.925c-0.152,42.95-0.133,85.906-0.057,128.856
	c0.019,2.91,0.568,5.909,1.351,8.737c1.623,5.935,5.12,10.461,11.067,12.602c7.393,2.651,14.912,2.702,22.514,1.01
	c8.119-1.799,12.993-6.932,14.634-14.893c0.896-4.313,1.218-8.82,1.256-13.239C360.781,788.803,360.705,769.313,360.705,749.805z"/>
<path style="fill: white" fill-rule="evenodd" clip-rule="evenodd" d="M108.518,772.515c0,1.762,0,3.036,0,4.312c0,23.556,0,47.104,0,70.653
	c0,0.991,0.019,1.982-0.019,2.974c-0.303,7.803-3.656,11.004-11.522,11.042c-2.974,0.006-5.947,0.101-8.896-0.076
	c-6.023-0.366-9.356-3.889-9.546-9.937c-0.057-1.49-0.038-2.961-0.038-4.458c0-65.008,0-130.023,0-195.038
	c0-1.288-0.019-2.583,0.038-3.858c0.189-5.868,3.58-9.735,9.395-9.716c19.464,0.038,38.991-0.208,58.424,0.764
	c12.816,0.644,24.553,5.284,33.069,15.742c5.751,7.096,8.668,15.449,8.857,24.392c0.36,17.412,0.549,34.843-0.038,52.236
	c-0.669,19.954-13.239,34.414-33.228,38.581c-7.386,1.541-15.063,1.926-22.646,2.298
	C124.598,772.799,116.807,772.515,108.518,772.515z M108.518,745.32c0.612,0.218,0.877,0.401,1.143,0.401
	c9.413-0.051,18.826,0.237,28.195-0.344c3.965-0.25,8.195-1.695,11.68-3.696c6.415-3.678,8.574-10.326,8.776-17.21
	c0.385-12.554,0.252-25.118,0.082-37.681c-0.057-4.656-1.256-9.221-3.927-13.192c-4.034-6.077-10.208-8.277-17.065-8.536
	c-8.403-0.332-16.825-0.025-25.228-0.322c-3.176-0.104-3.712,1.01-3.712,3.867c0.114,24.537,0.057,49.071,0.057,73.607
	C108.518,743.271,108.518,744.338,108.518,745.32z"/>
<path style="fill: white" fill-rule="evenodd" clip-rule="evenodd" d="M694.07,745.547c1.736-5.982,3.201-11.058,4.646-16.143
	c7.544-26.507,15.089-53.026,22.633-79.533c0.341-1.231,0.821-2.431,1.219-3.649c1.616-5.029,5.158-7.621,10.341-7.838
	c3.756-0.161,7.525-0.211,11.282,0.01c6.225,0.36,9.351,4.58,7.425,10.59c-4.666,14.783-9.597,29.48-14.477,44.197
	c-9.161,27.668-18.347,55.318-27.47,83.008c-0.644,2.021-0.991,4.23-1.01,6.364c-0.076,21.769-0.038,43.537-0.038,65.312
	c0,1.383,0,2.771-0.076,4.148c-0.379,5.612-3.561,9.003-9.18,9.375c-3.737,0.24-7.525,0.24-11.276,0
	c-5.985-0.359-9.28-3.832-9.356-10.082c-0.151-12.179-0.076-24.351-0.076-36.523c0-9.4-0.17-18.808,0.057-28.201
	c0.132-5.133-0.821-9.925-2.443-14.773c-13.347-40.005-26.604-80.047-39.869-120.09c-3.125-9.419-0.17-13.4,9.83-13.419
	c2.267,0,4.533-0.019,6.818,0.009c7.525,0.076,10.973,2.743,13.031,9.981c8.915,31.251,17.829,62.512,26.75,93.753
	C693.079,742.949,693.438,743.814,694.07,745.547z"/>
<path style="fill: white" fill-rule="evenodd" clip-rule="evenodd" d="M519.872,834.366c1.584,0,2.746,0,3.927,0c14.249,0,28.492,0,42.748,0
	c1.275,0,2.57,0.032,3.845,0.12c6.705,0.543,9.735,3.7,9.83,10.493c0.038,2.854,0.038,5.751-0.378,8.573
	c-0.708,4.786-3.51,7.273-8.29,7.816c-1.275,0.151-2.57,0.126-3.864,0.126c-21.756,0.006-43.531,0.006-65.306-0.013
	c-1.673,0-3.39-0.051-5.006-0.397c-4.558-0.991-6.958-3.77-7.393-8.429c-0.132-1.376-0.114-2.765-0.114-4.154
	c0-65.703,0-131.406,0-197.106c0-1.19,0-2.383,0.057-3.564c0.322-5.761,3.599-9.173,9.35-9.448c3.756-0.192,7.525-0.17,11.282-0.009
	c5.367,0.237,8.7,3.599,9.161,9.019c0.133,1.67,0.133,3.355,0.133,5.042c0.019,59.166,0.019,118.344,0.019,177.519
	C519.872,831.305,519.872,832.662,519.872,834.366z"/>
</svg>
