<svg xmlns="http://www.w3.org/2000/svg" viewBox="0 0 257.28 142.55"><defs><style>.cls-1{isolation:isolate;}.cls-2{fill:#5a5a5a;}.cls-3{fill:#465ffa;}.cls-4{fill:#005;mix-blend-mode:multiply;}.cls-5{fill:none;}</style></defs><title>Element 1</title><g class="cls-1"><g id="Ebene_2" data-name="Ebene 2"><g id="Ebene_1-2" data-name="Ebene 1"><path class="cls-2" d="M8.12,81.16l.6.19C8.52,81.27,8.32,81.22,8.12,81.16Z"/><path class="cls-2" d="M9.27,81.61a4.83,4.83,0,0,1,.55.3A4.83,4.83,0,0,0,9.27,81.61Z"/><path class="cls-2" d="M6.83,81a5.35,5.35,0,0,1,.7.07A5.35,5.35,0,0,0,6.83,81Z"/><path class="cls-2" d="M5.56,81a5.82,5.82,0,0,1,.73-.07A6,6,0,0,0,5.56,81Z"/><path class="cls-2" d="M48.14,138.92a4.63,4.63,0,0,1-.29.54A4.63,4.63,0,0,0,48.14,138.92Z"/><path class="cls-2" d="M10.32,82.27c.16.13.33.25.48.39C10.64,82.52,10.48,82.4,10.32,82.27Z"/><path class="cls-2" d="M47.48,140c-.13.16-.25.32-.39.47C47.23,140.29,47.35,140.13,47.48,140Z"/><path class="cls-2" d="M4.42,81.26A4.06,4.06,0,0,1,5,81.07,4.44,4.44,0,0,0,4.42,81.26Z"/><path class="cls-2" d="M36.1,116.71,11.55,83.49c-.09-.12-.2-.21-.29-.32a6.37,6.37,0,0,1,1.53,4.11v19.35l24.56,33.22c.06.08.14.14.21.22a6.3,6.3,0,0,1-1.46-4Z"/><path class="cls-2" d="M3.35,81.73a3.36,3.36,0,0,1,.49-.27A4,4,0,0,0,3.35,81.73Z"/><path class="cls-2" d="M38.63,141.11c-.14-.1-.27-.21-.4-.32C38.36,140.9,38.49,141,38.63,141.11Z"/><path class="cls-2" d="M48.59,137.77a5.8,5.8,0,0,1-.19.59C48.48,138.16,48.53,138,48.59,137.77Z"/><path class="cls-2" d="M42.48,142.44a6.41,6.41,0,0,0,1.15-.12,6.23,6.23,0,0,1-1.15.12Z"/><path class="cls-2" d="M44.74,142a5.94,5.94,0,0,1-.75.23A5.94,5.94,0,0,0,44.74,142Z"/><path class="cls-2" d="M41.1,142.28c-.13,0-.24-.08-.35-.11Z"/><path class="cls-2" d="M39.8,141.83l-.42-.23Z"/><path class="cls-2" d="M1.41,83.38a6.08,6.08,0,0,1,.39-.47C1.66,83.06,1.54,83.22,1.41,83.38Z"/><path class="cls-2" d="M.3,85.58A6,6,0,0,1,.49,85C.41,85.18.36,85.38.3,85.58Z"/><path class="cls-2" d="M2.63,82.15c-.12.09-.21.2-.32.29a4.7,4.7,0,0,1,.43-.35Z"/><path class="cls-2" d="M.75,84.42A5.61,5.61,0,0,1,1,83.88,5.61,5.61,0,0,0,.75,84.42Z"/><path class="cls-2" d="M.09,86.86a5.2,5.2,0,0,1,.07-.69A5.38,5.38,0,0,0,.09,86.86Z"/><path class="cls-2" d="M46.26,141.19c.12-.09.21-.2.32-.29-.15.12-.29.26-.45.37Z"/><path class="cls-2" d="M45.78,141.48a5.93,5.93,0,0,1-.65.36A4.63,4.63,0,0,0,45.78,141.48Z"/><path class="cls-2" d="M48.81,136.48c0,.23,0,.47-.07.69C48.78,136.94,48.79,136.71,48.81,136.48Z"/><path class="cls-2" d="M88.27,55.27a6.38,6.38,0,0,1,6.38-6.37c-6.66,0-13.82-4.11-13.82-13.14V6.38a6.38,6.38,0,1,0-12.75,0V35.76c0,16.82,13.69,25.89,26.57,25.89A6.38,6.38,0,0,1,88.27,55.27Z"/><path class="cls-3" d="M48.74,137.17c0,.2-.1.4-.15.6C48.64,137.57,48.7,137.38,48.74,137.17Z"/><path class="cls-3" d="M42.47,142.44h0a6.35,6.35,0,0,1-1.38-.16A6.19,6.19,0,0,0,42.47,142.44Z"/><path class="cls-3" d="M46.13,141.27a4.05,4.05,0,0,1-.35.21A4.05,4.05,0,0,0,46.13,141.27Z"/><path class="cls-3" d="M39.38,141.6a5.08,5.08,0,0,1-.75-.49A5.37,5.37,0,0,0,39.38,141.6Z"/><path class="cls-3" d="M38.23,140.79a6.56,6.56,0,0,1-.67-.72A5.71,5.71,0,0,0,38.23,140.79Z"/><path class="cls-3" d="M45.13,141.84l-.39.16Z"/><path class="cls-3" d="M40.75,142.17a6.74,6.74,0,0,1-1-.34A5.94,5.94,0,0,0,40.75,142.17Z"/><path class="cls-3" d="M44,142.23c-.12,0-.24.07-.36.09C43.76,142.3,43.87,142.26,44,142.23Z"/><path class="cls-3" d="M47.85,139.46a6,6,0,0,1-.37.51A6,6,0,0,0,47.85,139.46Z"/><path class="cls-3" d="M48.4,138.36a5.69,5.69,0,0,1-.26.56A4,4,0,0,0,48.4,138.36Z"/><path class="cls-3" d="M42.47,80.79a6.37,6.37,0,0,0-6.37,6.37v29.55l11.5,15.56a6.38,6.38,0,0,1,1.21,4.21c0-.14,0-.28,0-.42V87.16A6.38,6.38,0,0,0,42.47,80.79Z"/><path class="cls-3" d="M47.09,140.44c-.16.16-.33.31-.51.46C46.76,140.75,46.93,140.6,47.09,140.44Z"/><path class="cls-4" d="M47.6,132.27,36.1,116.71v19.35a6.3,6.3,0,0,0,1.46,4,6.56,6.56,0,0,0,.67.72c.13.11.26.22.4.32a5.08,5.08,0,0,0,.75.49l.42.23a6.74,6.74,0,0,0,1,.34c.11,0,.22.08.35.11a6.35,6.35,0,0,0,1.38.16,6.23,6.23,0,0,0,1.15-.12c.12,0,.24-.06.36-.09a5.94,5.94,0,0,0,.75-.23l.39-.16a5.93,5.93,0,0,0,.65-.36,4.05,4.05,0,0,0,.35-.21c.16-.11.3-.25.45-.37s.35-.3.51-.46.26-.31.39-.47a6,6,0,0,0,.37-.51,4.63,4.63,0,0,0,.29-.54,5.69,5.69,0,0,0,.26-.56,5.8,5.8,0,0,0,.19-.59c0-.2.11-.4.15-.6s0-.46.07-.69A6.38,6.38,0,0,0,47.6,132.27Z"/><path class="cls-3" d="M1.8,82.91c.16-.17.34-.32.51-.47C2.14,82.59,2,82.74,1.8,82.91Z"/><path class="cls-3" d="M10.8,82.66c.16.16.31.34.46.51C11.11,83,11,82.82,10.8,82.66Z"/><path class="cls-3" d="M1,83.88c.12-.18.25-.34.37-.5C1.28,83.54,1.16,83.7,1,83.88Z"/><path class="cls-3" d="M2.74,82.09a6.48,6.48,0,0,1,.61-.36A5.41,5.41,0,0,0,2.74,82.09Z"/><path class="cls-3" d="M.49,85c.07-.19.17-.37.26-.56C.66,84.61.56,84.79.49,85Z"/><path class="cls-3" d="M9.82,81.91c.18.11.34.24.5.36C10.16,82.15,10,82,9.82,81.91Z"/><path class="cls-3" d="M.16,86.17a5.63,5.63,0,0,1,.14-.59A5.63,5.63,0,0,0,.16,86.17Z"/><path class="cls-3" d="M.09,86.86c0,.14,0,.28,0,.42v48.9a6.38,6.38,0,0,0,12.75,0V106.63L1.29,91.07A6.32,6.32,0,0,1,.09,86.86Z"/><path class="cls-3" d="M5,81.07c.17,0,.34,0,.52-.08C5.38,81,5.21,81,5,81.07Z"/><path class="cls-3" d="M7.53,81c.2,0,.39.09.59.14C7.92,81.11,7.73,81.05,7.53,81Z"/><path class="cls-3" d="M8.72,81.35a5.52,5.52,0,0,1,.55.26Z"/><path class="cls-3" d="M6.42,80.91H6.29c.18,0,.36,0,.54,0C6.69,80.94,6.56,80.91,6.42,80.91Z"/><path class="cls-3" d="M3.84,81.46a5.66,5.66,0,0,1,.58-.2A5.66,5.66,0,0,0,3.84,81.46Z"/><path class="cls-4" d="M11.26,83.17c-.15-.17-.3-.35-.46-.51s-.32-.26-.48-.39-.32-.25-.5-.36a4.83,4.83,0,0,0-.55-.3,5.52,5.52,0,0,0-.55-.26l-.6-.19c-.2,0-.39-.11-.59-.14a5.35,5.35,0,0,0-.7-.07c-.18,0-.36,0-.54,0a5.82,5.82,0,0,0-.73.07c-.18,0-.35,0-.52.08a4.06,4.06,0,0,0-.62.19,5.66,5.66,0,0,0-.58.2,3.36,3.36,0,0,0-.49.27,6.48,6.48,0,0,0-.61.36,4.7,4.7,0,0,0-.43.35c-.17.15-.35.3-.51.47a6.08,6.08,0,0,0-.39.47c-.12.16-.25.32-.37.5a5.61,5.61,0,0,0-.29.54c-.09.19-.19.37-.26.56a6,6,0,0,0-.19.6,5.63,5.63,0,0,0-.14.59,5.2,5.2,0,0,0-.07.69,6.32,6.32,0,0,0,1.2,4.21l11.5,15.56V87.28A6.37,6.37,0,0,0,11.26,83.17Z"/><path class="cls-3" d="M121.22,35.76V6.38a6.38,6.38,0,1,0-12.75,0V35.76c0,9-7.17,13.14-13.82,13.14a6.38,6.38,0,0,1,0,12.75C107.53,61.65,121.22,52.58,121.22,35.76Z"/><circle class="cls-4" cx="94.65" cy="55.27" r="6.38"/><path class="cls-3" d="M146.73,48.9h6.38V6.38a6.38,6.38,0,1,0-12.75,0V55.27A6.37,6.37,0,0,1,146.73,48.9Z"/><path class="cls-2" d="M182.88,48.9H153.11v6.37a6.38,6.38,0,0,1-6.38,6.38h36.15a6.38,6.38,0,0,0,0-12.75Z"/><path class="cls-4" d="M153.11,55.27V48.9h-6.38a6.38,6.38,0,1,0,6.38,6.37Z"/><path class="cls-3" d="M214.77,48.9h6.37V6.38a6.38,6.38,0,1,0-12.75,0V55.27A6.38,6.38,0,0,1,214.77,48.9Z"/><path class="cls-2" d="M214.77,61.65h36.14a6.38,6.38,0,0,0,0-12.75H221.14v6.37A6.38,6.38,0,0,1,214.77,61.65Z"/><path class="cls-4" d="M214.77,61.65a6.38,6.38,0,0,0,6.37-6.38V48.9h-6.37a6.38,6.38,0,1,0,0,12.75Z"/><path class="cls-3" d="M107.6,81.29a6.38,6.38,0,0,0-5,11.75c4.7,2,6.89,5.54,6.89,11.19V119c0,5.66-2.19,9.21-6.89,11.2a6.38,6.38,0,0,0,2.48,12.25,6.22,6.22,0,0,0,2.48-.51c9.47-4,14.68-12.14,14.68-22.94V104.23C122.28,93.43,117.07,85.28,107.6,81.29Z"/><path class="cls-2" d="M86.65,93a6.38,6.38,0,1,0-5-11.75C72.23,85.28,67,93.43,67,104.23V119c0,10.8,5.22,19,14.69,22.94a6.21,6.21,0,0,0,2.47.51,6.38,6.38,0,0,0,2.49-12.25c-4.71-2-6.9-5.54-6.9-11.2V104.23C79.76,98.58,82,95,86.65,93Z"/><path class="cls-2" d="M214.77,93.54a6.38,6.38,0,0,1-6.38-6.38v24.45a6.38,6.38,0,0,1,6.38-6.37h6.37V93.54Z"/><path class="cls-2" d="M208.39,111.61v24.45a6.38,6.38,0,0,1,6.38-6.37h6.37V118h-6.37A6.38,6.38,0,0,1,208.39,111.61Z"/><path class="cls-3" d="M242.4,118a6.38,6.38,0,1,0,0-12.75H221.14V118Z"/><path class="cls-4" d="M208.39,111.61a6.38,6.38,0,0,0,6.38,6.38h6.37V105.24h-6.37A6.38,6.38,0,0,0,208.39,111.61Z"/><path class="cls-3" d="M221.14,87.16v6.38h29.77a6.38,6.38,0,0,0,0-12.75H214.77A6.37,6.37,0,0,1,221.14,87.16Z"/><path class="cls-4" d="M214.77,93.54h6.37V87.16a6.38,6.38,0,1,0-6.37,6.38Z"/><path class="cls-3" d="M214.77,142.44h36.14a6.38,6.38,0,0,0,0-12.75H221.14v6.37A6.38,6.38,0,0,1,214.77,142.44Z"/><path class="cls-4" d="M208.39,136.06a6.38,6.38,0,1,0,12.75,0v-6.37h-6.37A6.38,6.38,0,0,0,208.39,136.06Z"/><path class="cls-5" d="M158.43,129.69a18.08,18.08,0,0,0,0-36.15h-5.32v36.15Z"/><path class="cls-2" d="M146.73,129.69h6.38V93.54h-6.38a6.38,6.38,0,0,1-6.37-6.38v48.9A6.37,6.37,0,0,1,146.73,129.69Z"/><path class="cls-3" d="M158.43,80.79h-11.7a6.38,6.38,0,0,1,6.38,6.37v6.38h5.32a18.08,18.08,0,0,1,0,36.15h-5.32v6.37a6.38,6.38,0,0,1-6.38,6.38h11.7a30.83,30.83,0,0,0,0-61.65Z"/><path class="cls-4" d="M153.11,136.06v-6.37h-6.38a6.38,6.38,0,1,0,6.38,6.37Z"/><path class="cls-4" d="M146.73,93.54h6.38V87.16a6.38,6.38,0,1,0-6.38,6.38Z"/><path class="cls-3" d="M0,33c0,.15,0,.29,0,.44v-.88C0,32.66,0,32.8,0,33Z"/><path class="cls-3" d="M34,39.33a6.38,6.38,0,1,0,0-12.75H12.79V39.33Z"/><path class="cls-2" d="M0,6.38V32.51a6.35,6.35,0,0,1,6.34-5.93h6.41V12.75H6.42A6.38,6.38,0,0,1,0,6.38Z"/><path class="cls-2" d="M0,33.39V55.27a6.38,6.38,0,1,0,12.75,0V39.33H6.38A6.36,6.36,0,0,1,0,33.39Z"/><path class="cls-4" d="M0,32.51v.88a6.36,6.36,0,0,0,6.34,5.94h6.41V26.58H6.38A6.35,6.35,0,0,0,0,32.51Z"/><path class="cls-3" d="M42.56,0H6.42a6.37,6.37,0,0,1,6.37,6.38v6.37H42.56A6.38,6.38,0,1,0,42.56,0Z"/><path class="cls-4" d="M6.42,0a6.38,6.38,0,1,0,0,12.75h6.37V6.38A6.37,6.37,0,0,0,6.42,0Z"/></g></g></g></svg>