<svg width="154" height="50" viewBox="0 0 154 50" fill="none" xmlns="http://www.w3.org/2000/svg">
<rect x="0.572998" y="0.14563" width="41.0097" height="4.97087" fill="#00FFE0"/>
<rect x="0.572754" y="22.5146" width="41.0097" height="4.97087" fill="#00FFE0"/>
<rect x="0.572754" y="7.60194" width="11.1845" height="4.97087" fill="#00FFE0"/>
<rect x="30.3979" y="7.60194" width="11.1845" height="4.97087" fill="#00FFE0"/>
<rect x="30.3979" y="15.0583" width="11.1845" height="4.97087" fill="#00FFE0"/>
<rect x="0.572754" y="15.0583" width="11.1845" height="4.97087" fill="#00FFE0"/>
<rect x="0.572754" y="29.9709" width="11.1845" height="4.97087" fill="#00FFE0"/>
<rect x="0.572754" y="37.4272" width="11.1845" height="4.97087" fill="#00FFE0"/>
<rect x="0.572754" y="44.8835" width="11.1845" height="4.97087" fill="#00FFE0"/>
<rect x="56.4951" y="7.60194" width="11.1845" height="4.97087" fill="#00FFE0"/>
<rect x="56.4951" y="0.14563" width="11.1845" height="4.97087" fill="#00FFE0"/>
<rect x="56.4951" y="15.0583" width="11.1845" height="4.97087" fill="#00FFE0"/>
<rect x="56.4951" y="22.5146" width="11.1845" height="4.97087" fill="#00FFE0"/>
<rect x="56.4951" y="29.9709" width="11.1845" height="4.97087" fill="#00FFE0"/>
<rect x="56.4951" y="37.4272" width="11.1845" height="4.97087" fill="#00FFE0"/>
<rect x="112.417" y="7.60194" width="15.534" height="4.97087" fill="#00FFE0"/>
<rect x="137.893" y="37.4272" width="15.534" height="4.97087" fill="#00FFE0"/>
<rect x="112.417" y="0.14563" width="11.1845" height="4.97087" fill="#00FFE0"/>
<rect x="142.243" y="44.8835" width="11.1845" height="4.97087" fill="#00FFE0"/>
<rect x="112.417" y="44.8835" width="11.1845" height="4.97087" fill="#00FFE0"/>
<rect x="112.417" y="15.0583" width="11.1845" height="4.97087" fill="#00FFE0"/>
<rect x="126.709" y="15.0583" width="6.83495" height="4.97087" fill="#00FFE0"/>
<rect x="112.417" y="22.5146" width="11.1845" height="4.97087" fill="#00FFE0"/>
<rect x="129.815" y="22.5146" width="6.83495" height="4.97087" fill="#00FFE0"/>
<rect x="112.417" y="29.9709" width="11.1845" height="4.97087" fill="#00FFE0"/>
<rect x="132.922" y="29.9709" width="6.83495" height="4.97087" fill="#00FFE0"/>
<rect x="112.417" y="37.4272" width="11.1845" height="4.97087" fill="#00FFE0"/>
<rect x="142.243" y="7.60194" width="11.1845" height="4.97087" fill="#00FFE0"/>
<rect x="142.243" y="0.14563" width="11.1845" height="4.97087" fill="#00FFE0"/>
<rect x="142.243" y="15.0583" width="11.1845" height="4.97087" fill="#00FFE0"/>
<rect x="142.243" y="22.5146" width="11.1845" height="4.97087" fill="#00FFE0"/>
<rect x="142.243" y="29.9709" width="11.1845" height="4.97087" fill="#00FFE0"/>
<rect x="86.3203" y="7.60194" width="11.1845" height="4.97087" fill="#00FFE0"/>
<rect x="86.3203" y="0.14563" width="11.1845" height="4.97087" fill="#00FFE0"/>
<rect x="86.3203" y="15.0583" width="11.1845" height="4.97087" fill="#00FFE0"/>
<rect x="86.3203" y="22.5146" width="11.1845" height="4.97087" fill="#00FFE0"/>
<rect x="86.3203" y="29.9709" width="11.1845" height="4.97087" fill="#00FFE0"/>
<rect x="86.3203" y="37.4272" width="11.1845" height="4.97087" fill="#00FFE0"/>
<rect x="62.0874" y="44.8835" width="11.1845" height="4.97087" fill="#00FFE0"/>
<rect x="71.4077" y="37.4272" width="11.1845" height="4.97087" fill="#00FFE0"/>
<rect x="71.4077" y="29.9709" width="11.1845" height="4.97087" fill="#00FFE0"/>
<rect x="80.728" y="44.8835" width="11.1845" height="4.97087" fill="#00FFE0"/>
</svg>
