<svg width="113" height="39" viewBox="0 0 113 39" fill="none" xmlns="http://www.w3.org/2000/svg">
<rect width="22.9125" height="3.89999" fill="#05D1B9"/>
<rect y="17.5498" width="22.9125" height="3.89999" fill="#05D1B9"/>
<rect y="5.8501" width="8.77498" height="3.89999" fill="#05D1B9"/>
<rect x="14.1375" y="5.8501" width="8.77498" height="3.89999" fill="#05D1B9"/>
<rect x="14.1375" y="11.6997" width="8.77498" height="3.89999" fill="#05D1B9"/>
<rect y="11.6997" width="8.77498" height="3.89999" fill="#05D1B9"/>
<rect y="23.3999" width="8.77498" height="3.89999" fill="#05D1B9"/>
<rect y="29.25" width="8.77498" height="3.89999" fill="#05D1B9"/>
<rect y="35.1001" width="8.77498" height="3.89999" fill="#05D1B9"/>
<rect x="34.6125" y="5.8501" width="8.77498" height="3.89999" fill="#05D1B9"/>
<rect x="34.6125" width="8.77498" height="3.89999" fill="#05D1B9"/>
<rect x="34.6125" y="11.6997" width="8.77498" height="3.89999" fill="#05D1B9"/>
<rect x="34.6125" y="17.5498" width="8.77498" height="3.89999" fill="#05D1B9"/>
<rect x="34.6125" y="23.3999" width="8.77498" height="3.89999" fill="#05D1B9"/>
<rect x="34.6125" y="29.25" width="8.77498" height="3.89999" fill="#05D1B9"/>
<rect x="78.4873" y="5.8501" width="14.625" height="3.89999" fill="#05D1B9"/>
<rect x="98.4746" y="29.25" width="14.1375" height="3.89999" fill="#05D1B9"/>
<rect x="78.4873" width="8.77498" height="3.89999" fill="#05D1B9"/>
<rect x="103.837" y="35.1001" width="8.77498" height="3.89999" fill="#05D1B9"/>
<rect x="78.4873" y="35.1001" width="8.77498" height="3.89999" fill="#05D1B9"/>
<rect x="78.4873" y="11.6997" width="8.77498" height="3.89999" fill="#05D1B9"/>
<rect x="90.6748" y="11.6997" width="5.36249" height="3.89999" fill="#05D1B9"/>
<rect x="78.4873" y="17.5498" width="8.77498" height="3.89999" fill="#05D1B9"/>
<rect x="93.1123" y="17.5498" width="5.36249" height="3.89999" fill="#05D1B9"/>
<rect x="78.4873" y="23.3999" width="8.77498" height="3.89999" fill="#05D1B9"/>
<rect x="95.5498" y="23.3999" width="5.36249" height="3.89999" fill="#05D1B9"/>
<rect x="78.4873" y="29.25" width="8.77498" height="3.89999" fill="#05D1B9"/>
<rect x="103.837" y="5.8501" width="8.77498" height="3.89999" fill="#05D1B9"/>
<rect x="103.837" width="8.77498" height="3.89999" fill="#05D1B9"/>
<rect x="103.837" y="11.6997" width="8.77498" height="3.89999" fill="#05D1B9"/>
<rect x="103.837" y="17.5498" width="8.77498" height="3.89999" fill="#05D1B9"/>
<rect x="103.837" y="23.3999" width="8.77498" height="3.89999" fill="#05D1B9"/>
<rect x="58.0122" y="5.8501" width="8.77498" height="3.89999" fill="#05D1B9"/>
<rect x="58.0122" width="8.77498" height="3.89999" fill="#05D1B9"/>
<rect x="58.0122" y="11.6997" width="8.77498" height="3.89999" fill="#05D1B9"/>
<rect x="58.0122" y="17.5498" width="8.77498" height="3.89999" fill="#05D1B9"/>
<rect x="58.0122" y="23.3999" width="8.77498" height="3.89999" fill="#05D1B9"/>
<rect x="58.0122" y="29.25" width="8.77498" height="3.89999" fill="#05D1B9"/>
<rect x="39" y="35.1001" width="8.77498" height="3.89999" fill="#05D1B9"/>
<rect x="46.3125" y="29.25" width="8.77498" height="3.89999" fill="#05D1B9"/>
<rect x="46.3125" y="23.3999" width="8.77498" height="3.89999" fill="#05D1B9"/>
<rect x="53.625" y="35.1001" width="8.77498" height="3.89999" fill="#05D1B9"/>
</svg>
